{"title":"Zatch Bell eps 51-75","uid":9836458,"size":1983221488,"categoryP":"video","categoryS":"tv_shows","magnet":"?xt=urn:btih:9676f8276cfd244519455804c8b2e0f16369d83a&amp;dn=Zatch+Bell+eps+51-75&amp;tr=udp%3A%2F%2Ftracker.openbittorrent.com%3A80&amp;tr=udp%3A%2F%2Fopen.demonii.com%3A1337&amp;tr=udp%3A%2F%2Ftracker.coppersurfer.tk%3A6969&amp;tr=udp%3A%2F%2Fexodus.desync.com%3A6969","seeders":1,"leechers":0,"uploader":"p7trick","files":-1,"time":1395878704,"description":"watchcartoononline\n\nZatch Bell eps 51-75 ENGLISH DUBBED\n_________________________________________________________\n\nFormat                                   : MPEG-4\nFormat profile                           : Base Media\nCodec ID                                 : isom\nFile size                                : 67.4 MiB\nDuration                                 : 19mn 29s\nOverall bit rate                         : 484 Kbps\nWriting application                      : Lavf55.3.100\n\nVideo\nID                                       : 1\nFormat                                   : AVC\nFormat/Info                              : Advanced Video Codec\nFormat profile                           : &lt;a class=&quot;__cf_email__&quot; href=&quot;/cdn-cgi/l/email-protection&quot; data-cfemail=&quot;bcfeddcfd9d0d5d2d9fcf08f928c&quot;&gt;[email&amp;#160;protected]&lt;/a&gt;&lt;script cf-hash='f9e31' type=&quot;text/javascript&quot;&gt;\n/* &lt;![CDATA[ */!function(){try{var t=&quot;currentScript&quot;in document?document.currentScript:function(){for(var t=document.getElementsByTagName(&quot;script&quot;),e=t.length;e--;)if(t[e].getAttribute(&quot;cf-hash&quot;))return t[e]}();if(t&amp;&amp;t.previousSibling){var e,r,n,i,c=t.previousSibling,a=c.getAttribute(&quot;data-cfemail&quot;);if(a){for(e=&quot;&quot;,r=parseInt(a.substr(0,2),16),n=2;a.length-n;n+=2)i=parseInt(a.substr(n,2),16)^r,e+=String.fromCharCode(i);e=document.createTextNode(e),c.parentNode.replaceChild(e,c)}}}catch(u){}}();/* ]]&gt; */&lt;/script&gt;\nFormat settings, CABAC                   : No\nFormat settings, ReFrames                : 5 frames\nCodec ID                                 : avc1\nCodec ID/Info                            : Advanced Video Coding\nDuration                                 : 19mn 29s\nBit rate                                 : 348 Kbps\nWidth                                    : 640 pixels\nHeight                                   : 480 pixels\nDisplay aspect ratio                     : 4:3\nFrame rate mode                          : Constant\nFrame rate                               : 29.970 fps\nColor space                              : YUV\nChroma subsampling                       : 4:2:0\nBit depth                                : 8 bits\nScan type                                : Progressive\nBits/(Pixel*Frame)                       : 0.038\nStream size                              : 48.5 MiB (72%)\n\nAudio\nID                                       : 2\nFormat                                   : AAC\nFormat/Info                              : Advanced Audio Codec\nFormat profile                           : LC\nCodec ID                                 : 40\nDuration                                 : 19mn 29s\nBit rate mode                            : Constant\nBit rate                                 : 128 Kbps\nChannel(s)                               : 2 channels\nChannel positions                        : Front: L R\nSampling rate                            : 44.1 KHz\nCompression mode                         : Lossy\nStream size                              : 17.8 MiB (26%)\nLanguage                                 : English\n_________________________________________________________\n\nSummary:\nWhen he holds a mysterious red book and chants a spell, a lightning attack comes forth. When this strange boy Gash arrives at his house, the life of lazy middle-schooler Kiyomaro Takamine is thrown into chaos!! Gradually, Gash's true identity and abilities are revealed! Children from the demon world come and attack one after another!! What is the destiny of Kiyomaro, who has decided to fight alongside Gash!? New super-intense battle action!!\n\nFor updates/requests:\nTwitter - @p7tricktorrent\nFacebook - /p7tricktorrent\nTPB - /user/p7trick/\nKAT - /user/iPirate7\n_________________________________________________________\n\nSEED!\n\nshare ratio:\n&quot;Scumbag = 0.1:1\nLeecher = 0.999:1\nMinimum = 1:1\nGood = 3:1\nGreat = 5:1\nAwesome = 10:1\n1337 = 100:1&quot;\n","torrent":{"xt":"urn:btih:9676f8276cfd244519455804c8b2e0f16369d83a","amp;dn":"Zatch+Bell+eps+51-75","amp;tr":["udp%3A%2F%2Ftracker.openbittorrent.com%3A80","udp%3A%2F%2Fopen.demonii.com%3A1337","udp%3A%2F%2Ftracker.coppersurfer.tk%3A6969","udp%3A%2F%2Fexodus.desync.com%3A6969"],"infoHash":"9676f8276cfd244519455804c8b2e0f16369d83a","infoHashBuffer":{"type":"Buffer","data":[150,118,248,39,108,253,36,69,25,69,88,4,200,178,224,241,99,105,216,58]},"announce":[],"urlList":[]}}